<svg id="Layer_1" data-name="Layer 1" xmlns="http://www.w3.org/2000/svg" viewBox="0 0 380.75 126.5"><defs><style>.cls-1{fill:#f1f2f2;}.cls-2{fill:#0e4b7d;}.cls-3{fill:#fff;}</style></defs><title>fleeting_wordmark_white</title><polygon class="cls-1" points="115.77 49.66 113.91 58.4 98.4 58.4 100.29 49.66 115.77 49.66"/><polygon class="cls-1" points="112 67.32 110.1 76.23 82.76 76.23 84.69 67.32 112 67.32"/><polygon class="cls-2" points="110.1 76.23 108.2 85.15 59.62 85.15 61.55 76.23 110.1 76.23"/><polygon class="cls-2" points="117.67 40.75 115.77 49.66 57.43 49.66 59.36 40.75 117.67 40.75"/><polygon class="cls-2" points="113.87 58.58 112 67.32 30.7 67.32 32.63 58.4 98.4 58.4 98.36 58.58 113.87 58.58"/><path class="cls-3" d="M146.85,49.62l1.92-8.87h-31.1l-1.9,8.91-1.86,8.74,0,.18L112,67.32l-1.9,8.91-1.9,8.92H118l1.89-8.92,1.76-8.34h20.68l1.85-8.75H123.54l2-9.52Z"/><path class="cls-3" d="M155.12,85.27c-3.4,0-5.63-.9-6.71-2.7s-1.18-4.73-.3-8.8l7-33h9.4l-7,33a4,4,0,0,0,0,2.78c.32.5,1.15.75,2.51.75h1.14L159.55,85A31,31,0,0,1,155.12,85.27Z"/><path class="cls-3" d="M180.94,85.81q-15.45,0-15.45-13.06a32.88,32.88,0,0,1,.71-6.41q1.56-7.74,6.06-11.81T185,50.46a22.13,22.13,0,0,1,6.74.9A9.86,9.86,0,0,1,196,53.81a9.45,9.45,0,0,1,2.1,3.36,11.86,11.86,0,0,1,.63,3.95,51.65,51.65,0,0,1-1.44,10.61H174.47v.12q0,6.34,7.61,6.35a17.6,17.6,0,0,0,9.77-2.46l3.65,6.53Q190.12,85.81,180.94,85.81Zm2.94-27.5a7.68,7.68,0,0,0-5.24,1.7,10.67,10.67,0,0,0-3,5h14a14.69,14.69,0,0,0,.24-2.28,4.12,4.12,0,0,0-1.32-3.3C187.73,58.69,186.16,58.31,183.88,58.31Z"/><path class="cls-3" d="M216.71,85.81q-15.45,0-15.45-13.06a33,33,0,0,1,.72-6.41q1.54-7.74,6.05-11.81t12.7-4.07a22.09,22.09,0,0,1,6.74.9,9.86,9.86,0,0,1,4.25,2.45,9.45,9.45,0,0,1,2.1,3.36,11.86,11.86,0,0,1,.63,3.95A51.65,51.65,0,0,1,233,71.73H210.24v.12q0,6.34,7.61,6.35a17.6,17.6,0,0,0,9.77-2.46l3.65,6.53Q225.89,85.81,216.71,85.81Zm2.94-27.5a7.7,7.7,0,0,0-5.24,1.7,10.67,10.67,0,0,0-3,5h14a14.69,14.69,0,0,0,.24-2.28,4.12,4.12,0,0,0-1.32-3.3C223.51,58.69,221.93,58.31,219.65,58.31Z"/><path class="cls-3" d="M248.09,40.75h9.17l-2.2,10.49h7.73l-1.68,8h-7.79l-2.93,14a4.36,4.36,0,0,0,.12,3.14c.4.62,1.54.93,3.41.93h3.36l-1.68,7.85c-.92.08-2.67.12-5.27.12-4.52,0-7.42-.94-8.72-2.82s-1.53-4.83-.69-8.86L244,59.27Z"/><path class="cls-3" d="M262.31,85.15l7.25-33.91h9.35l-7.19,33.91Z"/><path class="cls-3" d="M279.51,85.15l7.07-33.37,7.49-.54v2.51a15.5,15.5,0,0,1,10.24-3.29,19.52,19.52,0,0,1,6.09.81A8.69,8.69,0,0,1,314,53.36a6.62,6.62,0,0,1,1.59,3.39,15,15,0,0,1,.21,4.1,43.8,43.8,0,0,1-.78,4.89l-4.19,19.41H301.5l3.89-18.39q.36-2.16.51-3.81a2.77,2.77,0,0,0-1.2-2.64,7.68,7.68,0,0,0-4.46-1c-2.36,0-4,.56-5.06,1.7A10.5,10.5,0,0,0,293,66l-4.07,19.11Z"/><path class="cls-3" d="M337.15,72.69a37.49,37.49,0,0,1-6.17-.48,3.57,3.57,0,0,0-.36,1.62,1.59,1.59,0,0,0,.57,1.37,4.54,4.54,0,0,0,2.3.48q10.2.18,13.91,2t3.71,6.56q0,6.89-4.43,9.26t-14.56,2.36q-9.53,0-13.54-1.91a6.6,6.6,0,0,1-4-6.41,7.76,7.76,0,0,1,2.49-6.15,12.35,12.35,0,0,1,6.44-2.78,6,6,0,0,1-1.26-4.08,6.9,6.9,0,0,1,2.4-5.09,7.89,7.89,0,0,1-2.7-6.29q0-6.76,3.93-9.74t12.37-3c.52,0,1.5,0,2.93.12l15.76-3.06-1.26,7.13h-5.33a8.6,8.6,0,0,1,2.7,6.59q0,6-3.87,8.72T337.15,72.69Zm-3.42,16.77q4.2.06,5.82-.78c1.08-.55,1.61-1.65,1.61-3.29,0-1.12-.71-1.91-2.15-2.37a28.83,28.83,0,0,0-7.67-.69q-3.84,0-5.27.84a3.12,3.12,0,0,0-1.44,2.94Q324.63,89.47,333.73,89.46Zm-1.16-23.9a8.77,8.77,0,0,0,4.64.9,7.65,7.65,0,0,0,4.85-1.26,4.87,4.87,0,0,0,1.56-4,2.87,2.87,0,0,0-1.38-2.6,9.36,9.36,0,0,0-4.73-.87c-2.2,0-3.8.4-4.79,1.2s-1.5,2.15-1.5,4.07A2.92,2.92,0,0,0,332.57,65.56Z"/></svg>